{
    "asset" : {
        "generator" : "Khronos glTF Blender I/O v1.1.45",
        "version" : "2.0"
    },
    "scene" : 0,
    "scenes" : [
        {
            "name" : "Scene",
            "nodes" : [
                0
            ]
        }
    ],
    "nodes" : [
        {
            "mesh" : 0,
            "name" : "Ballon",
            "translation" : [
                0.3050987720489502,
                -1.1614642143249512,
                -0.9225987195968628
            ]
        }
    ],
    "materials" : [
        {
            "doubleSided" : true,
            "emissiveFactor" : [
                0,
                0,
                0
            ],
            "name" : "Ballon",
            "normalTexture" : {
                "index" : 0,
                "texCoord" : 0
            },
            "pbrMetallicRoughness" : {
                "baseColorTexture" : {
                    "index" : 1,
                    "texCoord" : 0
                },
                "metallicFactor" : 0.23206230998039246,
                "metallicRoughnessTexture" : {
                    "index" : 2,
                    "texCoord" : 0
                }
            }
        }
    ],
    "meshes" : [
        {
            "name" : "Mesh_0.001",
            "primitives" : [
                {
                    "attributes" : {
                        "POSITION" : 0,
                        "NORMAL" : 1,
                        "TEXCOORD_0" : 2
                    },
                    "indices" : 3,
                    "material" : 0
                }
            ]
        }
    ],
    "textures" : [
        {
            "source" : 0
        },
        {
            "source" : 1
        },
        {
            "source" : 2
        }
    ],
    "images" : [
        {
            "bufferView" : 4,
            "mimeType" : "image/png",
            "name" : "Balloon_Ballon_Normal"
        },
        {
            "bufferView" : 5,
            "mimeType" : "image/png",
            "name" : "Diffuse"
        },
        {
            "bufferView" : 6,
            "mimeType" : "image/png",
            "name" : "Rougness"
        }
    ],
    "accessors" : [
        {
            "bufferView" : 0,
            "componentType" : 5126,
            "count" : 962,
            "max" : [
                2.72725772857666,
                5.1060590744018555,
                2.768510341644287
            ],
            "min" : [
                -2.7982473373413086,
                -1.5114290714263916,
                -2.7500476837158203
            ],
            "type" : "VEC3"
        },
        {
            "bufferView" : 1,
            "componentType" : 5126,
            "count" : 962,
            "type" : "VEC3"
        },
        {
            "bufferView" : 2,
            "componentType" : 5126,
            "count" : 962,
            "type" : "VEC2"
        },
        {
            "bufferView" : 3,
            "componentType" : 5123,
            "count" : 5283,
            "type" : "SCALAR"
        }
    ],
    "bufferViews" : [
        {
            "buffer" : 0,
            "byteLength" : 11544,
            "byteOffset" : 0
        },
        {
            "buffer" : 0,
            "byteLength" : 11544,
            "byteOffset" : 11544
        },
        {
            "buffer" : 0,
            "byteLength" : 7696,
            "byteOffset" : 23088
        },
        {
            "buffer" : 0,
            "byteLength" : 10566,
            "byteOffset" : 30784
        },
        {
            "buffer" : 0,
            "byteLength" : 620639,
            "byteOffset" : 41352
        },
        {
            "buffer" : 0,
            "byteLength" : 454881,
            "byteOffset" : 661992
        },
        {
            "buffer" : 0,
            "byteLength" : 68759,
            "byteOffset" : 1116876
        }
    ],
    "buffers" : [
        {
            "byteLength" : 1185636,
            "uri" : "data:application/octet-stream;base64,"
        }
    ]
}
